{
  "accessors": [
    {
      "bufferView": 2,
      "componentType": 5126,
      "count": 65532,
      "max": [
        0.90673333406448364,
        0.93182837963104248,
        1.3133193254470825
      ],
      "min": [
        -1.3641223907470703,
        -1.0187798738479614,
        -0.99397820234298706
      ],
      "type": "VEC3"
    },
    {
      "bufferView": 2,
      "byteOffset": 786384,
      "componentType": 5126,
      "count": 65532,
      "max": [
        0.99978423118591309,
        0.99990403652191162,
        0.99964344501495361
      ],
      "min": [
        -0.9999396800994873,
        -0.99996840953826904,
        -0.99999368190765381
      ],
      "type": "VEC3"
    },
    {
      "bufferView": 1,
      "componentType": 5126,
      "count": 65532,
      "max": [
        0.9545401930809021,
        0.4310944676399231
      ],
      "min": [
        0.024739563465118408,
        0
      ],
      "type": "VEC2"
    },
    {
      "bufferView": 0,
      "componentType": 5125,
      "count": 350571,
      "max": [
        65531
      ],
      "min": [
        0
      ],
      "type": "SCALAR"
    },
    {
      "bufferView": 2,
      "byteOffset": 1572768,
      "componentType": 5126,
      "count": 65532,
      "max": [
        1.0442529916763306,
        0.93169403076171875,
        0.96957790851593018
      ],
      "min": [
        -0.99384772777557373,
        -1.0277432203292847,
        -0.41726216673851013
      ],
      "type": "VEC3"
    },
    {
      "bufferView": 2,
      "byteOffset": 2359152,
      "componentType": 5126,
      "count": 65532,
      "max": [
        0.99985873699188232,
        0.99999535083770752,
        0.99993407726287842
      ],
      "min": [
        -0.99997508525848389,
        -0.99851435422897339,
        -0.99989175796508789
      ],
      "type": "VEC3"
    },
    {
      "bufferView": 1,
      "byteOffset": 524256,
      "componentType": 5126,
      "count": 65532,
      "max": [
        0.98462170362472534,
        0.47238212823867798
      ],
      "min": [
        0.13636350631713867,
        0.13082455098628998
      ],
      "type": "VEC2"
    },
    {
      "bufferView": 0,
      "byteOffset": 1402284,
      "componentType": 5125,
      "count": 352524,
      "max": [
        65531
      ],
      "min": [
        0
      ],
      "type": "SCALAR"
    },
    {
      "bufferView": 2,
      "byteOffset": 3145536,
      "componentType": 5126,
      "count": 65532,
      "max": [
        1.0810847282409668,
        1.4636603593826294,
        0.97305577993392944
      ],
      "min": [
        -1.3418371677398682,
        -1.4370071887969971,
        -0.52591449022293091
      ],
      "type": "VEC3"
    },
    {
      "bufferView": 2,
      "byteOffset": 3931920,
      "componentType": 5126,
      "count": 65532,
      "max": [
        0.99998629093170166,
        0.99999332427978516,
        0.99997735023498535
      ],
      "min": [
        -0.99985647201538086,
        -0.99993789196014404,
        -0.9999854564666748
      ],
      "type": "VEC3"
    },
    {
      "bufferView": 1,
      "byteOffset": 1048512,
      "componentType": 5126,
      "count": 65532,
      "max": [
        0.98206686973571777,
        0.47238212823867798
      ],
      "min": [
        0.089283689856529236,
        0.1786915510892868
      ],
      "type": "VEC2"
    },
    {
      "bufferView": 0,
      "byteOffset": 2812380,
      "componentType": 5125,
      "count": 350376,
      "max": [
        65531
      ],
      "min": [
        0
      ],
      "type": "SCALAR"
    },
    {
      "bufferView": 2,
      "byteOffset": 4718304,
      "componentType": 5126,
      "count": 65532,
      "max": [
        1.4993897676467896,
        1.0540558099746704,
        0.58267384767532349
      ],
      "min": [
        -1.3012083768844604,
        -1.3339923620223999,
        -1.5003427267074585
      ],
      "type": "VEC3"
    },
    {
      "bufferView": 2,
      "byteOffset": 5504688,
      "componentType": 5126,
      "count": 65532,
      "max": [
        0.99999821186065674,
        0.99995839595794678,
        0.99999833106994629
      ],
      "min": [
        -0.999991774559021,
        -0.99985063076019287,
        -0.9998924732208252
      ],
      "type": "VEC3"
    },
    {
      "bufferView": 1,
      "byteOffset": 1572768,
      "componentType": 5126,
      "count": 65532,
      "max": [
        0.90651929378509521,
        0.34155747294425964
      ],
      "min": [
        0.015378381125628948,
        0.0032804377842694521
      ],
      "type": "VEC2"
    },
    {
      "bufferView": 0,
      "byteOffset": 4213884,
      "componentType": 5125,
      "count": 351780,
      "max": [
        65531
      ],
      "min": [
        0
      ],
      "type": "SCALAR"
    },
    {
      "bufferView": 2,
      "byteOffset": 6291072,
      "componentType": 5126,
      "count": 65532,
      "max": [
        1.3584108352661133,
        1.3891701698303223,
        1.5154746770858765
      ],
      "min": [
        -1.5294348001480103,
        -1.5313218832015991,
        -1.5416258573532104
      ],
      "type": "VEC3"
    },
    {
      "bufferView": 2,
      "byteOffset": 7077456,
      "componentType": 5126,
      "count": 65532,
      "max": [
        0.99978423118591309,
        0.99999845027923584,
        0.99976861476898193
      ],
      "min": [
        -0.99997973442077637,
        -0.99989140033721924,
        -0.99997043609619141
      ],
      "type": "VEC3"
    },
    {
      "bufferView": 1,
      "byteOffset": 2097024,
      "componentType": 5126,
      "count": 65532,
      "max": [
        0.9767305850982666,
        0.45953115820884705
      ],
      "min": [
        0.016321262344717979,
        0
      ],
      "type": "VEC2"
    },
    {
      "bufferView": 0,
      "byteOffset": 5621004,
      "componentType": 5125,
      "count": 351969,
      "max": [
        65531
      ],
      "min": [
        0
      ],
      "type": "SCALAR"
    },
    {
      "bufferView": 2,
      "byteOffset": 7863840,
      "componentType": 5126,
      "count": 40949,
      "max": [
        1.5003858804702759,
        1.5224176645278931,
        1.5301488637924194
      ],
      "min": [
        -1.4922168254852295,
        -1.4847393035888672,
        -1.3636497259140015
      ],
      "type": "VEC3"
    },
    {
      "bufferView": 2,
      "byteOffset": 8355228,
      "componentType": 5126,
      "count": 40949,
      "max": [
        0.99984908103942871,
        0.99999356269836426,
        0.99999558925628662
      ],
      "min": [
        -0.99996685981750488,
        -0.99996304512023926,
        -0.99999010562896729
      ],
      "type": "VEC3"
    },
    {
      "bufferView": 1,
      "byteOffset": 2621280,
      "componentType": 5126,
      "count": 40949,
      "max": [
        0.94315505027770996,
        0.46254080533981323
      ],
      "min": [
        0.034327622503042221,
        0.078730508685112
      ],
      "type": "VEC2"
    },
    {
      "bufferView": 0,
      "byteOffset": 7028880,
      "componentType": 5125,
      "count": 215004,
      "max": [
        40948
      ],
      "min": [
        0
      ],
      "type": "SCALAR"
    }
  ],
  "asset": {
    "extras": {
      "author": "asimhero93 (https://sketchfab.com/asimhero93)",
      "license": "CC-BY-4.0 (http://creativecommons.org/licenses/by/4.0/)",
      "source": "https://sketchfab.com/3d-models/coronavirus-e5b0f62f34c14e8495771a24b67e88f5",
      "title": "Coronavirus"
    },
    "generator": "Sketchfab-8.42.0",
    "version": "2.0"
  },
  "bufferViews": [
    {
      "buffer": 0,
      "byteLength": 7888896,
      "byteOffset": 0,
      "name": "floatBufferViews",
      "target": 34963
    },
    {
      "buffer": 0,
      "byteLength": 2948872,
      "byteOffset": 7888896,
      "byteStride": 8,
      "name": "floatBufferViews",
      "target": 34962
    },
    {
      "buffer": 0,
      "byteLength": 8846616,
      "byteOffset": 10837768,
      "byteStride": 12,
      "name": "floatBufferViews",
      "target": 34962
    }
  ],
  "buffers": [
    {
      "byteLength": 19684384,
      "uri": "scene.bin"
    }
  ],
  "images": [
    {
      "uri": "textures/Material.014_baseColor.jpeg"
    }
  ],
  "materials": [
    {
      "doubleSided": true,
      "emissiveFactor": [
        0,
        0,
        0
      ],
      "name": "Material.014",
      "pbrMetallicRoughness": {
        "baseColorFactor": [
          1,
          1,
          1,
          1
        ],
        "baseColorTexture": {
          "index": 0,
          "texCoord": 0
        },
        "metallicFactor": 0,
        "roughnessFactor": 0.82111456180001685
      }
    }
  ],
  "meshes": [
    {
      "name": "Icosphere.002_Material.014_0",
      "primitives": [
        {
          "attributes": {
            "NORMAL": 1,
            "POSITION": 0,
            "TEXCOORD_0": 2
          },
          "indices": 3,
          "material": 0,
          "mode": 4
        }
      ]
    },
    {
      "name": "Icosphere.002_Material.014_0",
      "primitives": [
        {
          "attributes": {
            "NORMAL": 5,
            "POSITION": 4,
            "TEXCOORD_0": 6
          },
          "indices": 7,
          "material": 0,
          "mode": 4
        }
      ]
    },
    {
      "name": "Icosphere.002_Material.014_0",
      "primitives": [
        {
          "attributes": {
            "NORMAL": 9,
            "POSITION": 8,
            "TEXCOORD_0": 10
          },
          "indices": 11,
          "material": 0,
          "mode": 4
        }
      ]
    },
    {
      "name": "Icosphere.002_Material.014_0",
      "primitives": [
        {
          "attributes": {
            "NORMAL": 13,
            "POSITION": 12,
            "TEXCOORD_0": 14
          },
          "indices": 15,
          "material": 0,
          "mode": 4
        }
      ]
    },
    {
      "name": "Icosphere.002_Material.014_0",
      "primitives": [
        {
          "attributes": {
            "NORMAL": 17,
            "POSITION": 16,
            "TEXCOORD_0": 18
          },
          "indices": 19,
          "material": 0,
          "mode": 4
        }
      ]
    },
    {
      "name": "Icosphere.002_Material.014_0",
      "primitives": [
        {
          "attributes": {
            "NORMAL": 21,
            "POSITION": 20,
            "TEXCOORD_0": 22
          },
          "indices": 23,
          "material": 0,
          "mode": 4
        }
      ]
    }
  ],
  "nodes": [
    {
      "children": [
        1
      ],
      "name": "RootNode (gltf orientation matrix)",
      "rotation": [
        -0.70710678118654746,
        -0,
        -0,
        0.70710678118654757
      ]
    },
    {
      "children": [
        2
      ],
      "name": "RootNode (model correction matrix)"
    },
    {
      "children": [
        3
      ],
      "matrix": [
        1,
        0,
        0,
        0,
        0,
        0,
        1,
        0,
        0,
        -1,
        0,
        0,
        0,
        0,
        0,
        1
      ],
      "name": "e8f950a7c3c341c99d4edebd1c5fa5af.fbx"
    },
    {
      "children": [
        4
      ],
      "name": "RootNode"
    },
    {
      "children": [
        5,
        6,
        7,
        8,
        9,
        10
      ],
      "matrix": [
        99.06943722920775,
        125.90400579287652,
        -80.709745073633684,
        0,
        -118.81351503694877,
        125.05663556024787,
        49.242421648769508,
        0,
        90.825252348934583,
        26.261216028067327,
        152.45245688869247,
        0,
        -158.42854309082031,
        -255.0184326171875,
        -514.90411376953125,
        1
      ],
      "name": "Icosphere.002"
    },
    {
      "mesh": 0,
      "name": "Icosphere.002_Material.014_0"
    },
    {
      "mesh": 1,
      "name": "Icosphere.002_Material.014_0"
    },
    {
      "mesh": 2,
      "name": "Icosphere.002_Material.014_0"
    },
    {
      "mesh": 3,
      "name": "Icosphere.002_Material.014_0"
    },
    {
      "mesh": 4,
      "name": "Icosphere.002_Material.014_0"
    },
    {
      "mesh": 5,
      "name": "Icosphere.002_Material.014_0"
    }
  ],
  "samplers": [
    {
      "magFilter": 9729,
      "minFilter": 9987,
      "wrapS": 10497,
      "wrapT": 10497
    }
  ],
  "scene": 0,
  "scenes": [
    {
      "name": "OSG_Scene",
      "nodes": [
        0
      ]
    }
  ],
  "textures": [
    {
      "sampler": 0,
      "source": 0
    }
  ]
}

